<svg width="24" height="24" viewBox="0 0 24 24" fill="none" xmlns="http://www.w3.org/2000/svg">
<circle cx="11.5" cy="11.5" r="5.5" fill="white"/>
<path d="M19.5 13C19.5 12.7239 19.2761 12.5 19 12.5C18.7239 12.5 18.5 12.7239 18.5 13H19.5ZM18.6464 19.3536C18.8417 19.5488 19.1583 19.5488 19.3536 19.3536L22.5355 16.1716C22.7308 15.9763 22.7308 15.6597 22.5355 15.4645C22.3403 15.2692 22.0237 15.2692 21.8284 15.4645L19 18.2929L16.1716 15.4645C15.9763 15.2692 15.6597 15.2692 15.4645 15.4645C15.2692 15.6597 15.2692 15.9763 15.4645 16.1716L18.6464 19.3536ZM18.5 13V19H19.5V13H18.5Z" fill="white"/>
</svg>
