<svg width="24" height="24" viewBox="0 0 24 24" fill="none" xmlns="http://www.w3.org/2000/svg">
<circle cx="11.5" cy="11.5" r="5.5" fill="white"/>
<path d="M19.5 19C19.5 19.2761 19.2761 19.5 19 19.5C18.7239 19.5 18.5 19.2761 18.5 19H19.5ZM18.6464 12.6464C18.8417 12.4512 19.1583 12.4512 19.3536 12.6464L22.5355 15.8284C22.7308 16.0237 22.7308 16.3403 22.5355 16.5355C22.3403 16.7308 22.0237 16.7308 21.8284 16.5355L19 13.7071L16.1716 16.5355C15.9763 16.7308 15.6597 16.7308 15.4645 16.5355C15.2692 16.3403 15.2692 16.0237 15.4645 15.8284L18.6464 12.6464ZM18.5 19V13H19.5V19H18.5Z" fill="white"/>
</svg>
