<svg width="24" height="24" viewBox="0 0 24 24" fill="none" xmlns="http://www.w3.org/2000/svg">
<path fill-rule="evenodd" clip-rule="evenodd" d="M6.07019 4.32207C5.84356 4.1101 5.5438 3.9947 5.23408 4.00019C4.92436 4.00567 4.62885 4.13161 4.40981 4.35147C4.19076 4.57133 4.06529 4.86795 4.05983 5.17883C4.05436 5.48971 4.16933 5.79059 4.38051 6.01807L10.3103 11.9701L4.38051 17.9221C4.26305 18.0319 4.16884 18.1644 4.1035 18.3116C4.03815 18.4588 4.00302 18.6177 4.00019 18.7788C3.99735 18.94 4.02688 19.1 4.08701 19.2494C4.14714 19.3988 4.23664 19.5346 4.35016 19.6485C4.46369 19.7625 4.59892 19.8523 4.74778 19.9127C4.89664 19.973 5.05609 20.0027 5.21662 19.9998C5.37714 19.997 5.53545 19.9617 5.6821 19.8961C5.82875 19.8305 5.96074 19.736 6.07019 19.6181L12 13.6661L17.9298 19.6181C18.0393 19.736 18.1712 19.8305 18.3179 19.8961C18.4645 19.9617 18.6229 19.997 18.7834 19.9998C18.9439 20.0027 19.1034 19.973 19.2522 19.9127C19.4011 19.8523 19.5363 19.7625 19.6498 19.6485C19.7634 19.5346 19.8529 19.3988 19.913 19.2494C19.9731 19.1 20.0026 18.94 19.9998 18.7788C19.997 18.6177 19.9618 18.4588 19.8965 18.3116C19.8312 18.1644 19.7369 18.0319 19.6195 17.9221L13.6897 11.9701L19.6195 6.01807C19.8307 5.79059 19.9456 5.48971 19.9402 5.17883C19.9347 4.86795 19.8092 4.57133 19.5902 4.35147C19.3712 4.13161 19.0756 4.00567 18.7659 4.00019C18.4562 3.9947 18.1564 4.1101 17.9298 4.32207L12 10.2741L6.07019 4.32207Z" fill="white"/>
</svg>
