<svg width="16" height="17" viewBox="0 0 16 17" fill="none" xmlns="http://www.w3.org/2000/svg">
<path fill-rule="evenodd" clip-rule="evenodd" d="M2.07019 0.822067C1.84356 0.610099 1.5438 0.494702 1.23408 0.500187C0.924357 0.505672 0.628846 0.631611 0.409805 0.851472C0.190764 1.07133 0.0652943 1.36795 0.0598296 1.67883C0.0543649 1.98971 0.169332 2.29059 0.38051 2.51807L6.31032 8.47007L0.38051 14.4221C0.26305 14.5319 0.168839 14.6644 0.103497 14.8116C0.0381541 14.9588 0.00301832 15.1177 0.000186058 15.2788C-0.0026462 15.44 0.0268827 15.6 0.0870114 15.7494C0.14714 15.8988 0.236636 16.0346 0.350162 16.1485C0.463687 16.2625 0.598915 16.3523 0.747779 16.4127C0.896643 16.473 1.05609 16.5027 1.21662 16.4998C1.37714 16.497 1.53545 16.4617 1.6821 16.3961C1.82875 16.3305 1.96074 16.236 2.07019 16.1181L8 10.1661L13.9298 16.1181C14.0393 16.236 14.1712 16.3305 14.3179 16.3961C14.4645 16.4617 14.6229 16.497 14.7834 16.4998C14.9439 16.5027 15.1034 16.473 15.2522 16.4127C15.4011 16.3523 15.5363 16.2625 15.6498 16.1485C15.7634 16.0346 15.8529 15.8988 15.913 15.7494C15.9731 15.6 16.0026 15.44 15.9998 15.2788C15.997 15.1177 15.9618 14.9588 15.8965 14.8116C15.8312 14.6644 15.7369 14.5319 15.6195 14.4221L9.68968 8.47007L15.6195 2.51807C15.8307 2.29059 15.9456 1.98971 15.9402 1.67883C15.9347 1.36795 15.8092 1.07133 15.5902 0.851472C15.3712 0.631611 15.0756 0.505672 14.7659 0.500187C14.4562 0.494702 14.1564 0.610099 13.9298 0.822067L8 6.77407L2.07019 0.822067Z" fill="white"/>
</svg>
