<svg width="24" height="24" viewBox="0 0 24 24" fill="none" xmlns="http://www.w3.org/2000/svg">
<path d="M6.76201 7.45201C6.90734 7.58781 6.99278 7.77577 6.99953 7.97456C7.00628 8.17334 6.9338 8.36667 6.79801 8.51201L4.47601 11H10.25C10.4489 11 10.6397 11.079 10.7803 11.2197C10.921 11.3603 11 11.5511 11 11.75C11 11.9489 10.921 12.1397 10.7803 12.2803C10.6397 12.421 10.4489 12.5 10.25 12.5H4.47601L6.79801 14.988C6.86636 15.0598 6.91981 15.1444 6.95527 15.2369C6.99073 15.3294 7.0075 15.4281 7.00462 15.5271C7.00173 15.6262 6.97924 15.7237 6.93845 15.814C6.89766 15.9043 6.83937 15.9857 6.76696 16.0533C6.69455 16.121 6.60945 16.1736 6.51658 16.2082C6.4237 16.2427 6.3249 16.2586 6.22588 16.2547C6.12685 16.2509 6.02957 16.2275 5.93965 16.1858C5.84974 16.1441 5.76897 16.0851 5.70201 16.012L2.20201 12.262C2.07224 12.1231 2.00006 11.9401 2.00006 11.75C2.00006 11.5599 2.07224 11.3769 2.20201 11.238L5.70201 7.48801C5.83781 7.34268 6.02577 7.25724 6.22456 7.25049C6.42334 7.24374 6.61667 7.31623 6.76201 7.45201ZM17.238 7.45201C17.0927 7.58781 17.0072 7.77577 17.0005 7.97456C16.9937 8.17334 17.0662 8.36667 17.202 8.51201L19.524 11H13.75C13.5511 11 13.3603 11.079 13.2197 11.2197C13.079 11.3603 13 11.5511 13 11.75C13 11.9489 13.079 12.1397 13.2197 12.2803C13.3603 12.421 13.5511 12.5 13.75 12.5H19.524L17.202 14.988C17.1337 15.0598 17.0802 15.1444 17.0448 15.2369C17.0093 15.3294 16.9925 15.4281 16.9954 15.5271C16.9983 15.6262 17.0208 15.7237 17.0616 15.814C17.1024 15.9043 17.1607 15.9857 17.2331 16.0533C17.3055 16.121 17.3906 16.1736 17.4835 16.2082C17.5763 16.2427 17.6751 16.2586 17.7742 16.2547C17.8732 16.2509 17.9705 16.2275 18.0604 16.1858C18.1503 16.1441 18.2311 16.0851 18.298 16.012L21.798 12.262C21.9278 12.1231 22 11.9401 22 11.75C22 11.5599 21.9278 11.3769 21.798 11.238L18.298 7.48801C18.1622 7.34268 17.9743 7.25724 17.7755 7.25049C17.5767 7.24374 17.3834 7.31623 17.238 7.45201Z" fill="white"/>
</svg>
