<svg width="24" height="24" viewBox="0 0 24 24" fill="none" xmlns="http://www.w3.org/2000/svg">
<g clip-path="url(#clip0_565_325)">
<path d="M4.87439 12.0186L5.93485 3.53489C6.00927 2.93954 6.51532 2.49303 7.11811 2.49303H13.3916C13.9497 2.49303 14.4 2.94326 14.4 3.5014C14.4 3.62047 14.3776 3.74326 14.3367 3.85489L12.6139 8.44652H17.7972C18.5488 8.44652 19.1628 9.05675 19.1628 9.8121C19.1628 10.0874 19.0809 10.3554 18.9246 10.5823L11.773 21.0381C11.5535 21.3581 11.1925 21.5479 10.8093 21.5479H10.7014C10.1172 21.5479 9.6409 21.0716 9.6409 20.4874C9.6409 20.4019 9.65206 20.3163 9.67439 20.2307L11.4232 13.2093H6.06509C5.40648 13.2093 4.87439 12.6772 4.87439 12.0186Z" fill="white"/>
</g>
<defs>
<clipPath id="clip0_565_325">
<rect width="14.2884" height="19.0512" fill="white" transform="translate(4.87439 2.49303)"/>
</clipPath>
</defs>
</svg>
