<svg width="24" height="24" viewBox="0 0 24 24" fill="none" xmlns="http://www.w3.org/2000/svg">
<path d="M2 11.3C1.6134 11.3 1.3 11.6134 1.3 12C1.3 12.3866 1.6134 12.7 2 12.7V11.3ZM10.495 12.495C10.7683 12.2216 10.7683 11.7784 10.495 11.505L6.0402 7.05025C5.76683 6.77689 5.32362 6.77689 5.05025 7.05025C4.77689 7.32362 4.77689 7.76684 5.05025 8.0402L9.01005 12L5.05025 15.9598C4.77689 16.2332 4.77689 16.6764 5.05025 16.9497C5.32362 17.2231 5.76683 17.2231 6.0402 16.9497L10.495 12.495ZM2 12.7H10V11.3H2V12.7Z" fill="white"/>
<path d="M22 12.7C22.3866 12.7 22.7 12.3866 22.7 12C22.7 11.6134 22.3866 11.3 22 11.3V12.7ZM13.505 11.505C13.2317 11.7784 13.2317 12.2216 13.505 12.495L17.9598 16.9497C18.2332 17.2231 18.6764 17.2231 18.9497 16.9497C19.2231 16.6764 19.2231 16.2332 18.9497 15.9598L14.9899 12L18.9497 8.0402C19.2231 7.76684 19.2231 7.32362 18.9497 7.05025C18.6764 6.77689 18.2332 6.77689 17.9598 7.05025L13.505 11.505ZM22 11.3H14V12.7H22V11.3Z" fill="white"/>
</svg>
