<svg width="30" height="30" viewBox="0 0 30 30" fill="none" xmlns="http://www.w3.org/2000/svg">
<path d="M15 2.5C16.2361 2.5 17.4445 2.86656 18.4723 3.55331C19.5001 4.24007 20.3012 5.21619 20.7742 6.35823C21.2473 7.50027 21.3711 8.75693 21.1299 9.96931C20.8888 11.1817 20.2935 12.2953 19.4194 13.1694C18.5453 14.0435 17.4317 14.6388 16.2193 14.8799C15.0069 15.1211 13.7503 14.9973 12.6082 14.5242C11.4662 14.0512 10.4901 13.2501 9.80331 12.2223C9.11656 11.1945 8.75 9.98613 8.75 8.75L8.75625 8.47875C8.82615 6.86969 9.51451 5.34972 10.6778 4.23582C11.841 3.12193 13.3894 2.50009 15 2.5ZM17.5 17.5C19.1576 17.5 20.7473 18.1585 21.9194 19.3306C23.0915 20.5027 23.75 22.0924 23.75 23.75V25C23.75 25.663 23.4866 26.2989 23.0178 26.7678C22.5489 27.2366 21.913 27.5 21.25 27.5H8.75C8.08696 27.5 7.45107 27.2366 6.98223 26.7678C6.51339 26.2989 6.25 25.663 6.25 25V23.75C6.25 22.0924 6.90848 20.5027 8.08058 19.3306C9.25269 18.1585 10.8424 17.5 12.5 17.5H17.5Z" fill="white"/>
</svg>
