<svg width="24" height="25" viewBox="0 0 24 25" fill="none" xmlns="http://www.w3.org/2000/svg">
<g clip-path="url(#clip0_238_685)">
<path d="M7.4125 12.5C6.0625 12.5446 4.95833 13.1161 4.1 14.2143H2.425C1.74167 14.2143 1.16667 14.0335 0.7 13.6719C0.233333 13.3103 0 12.7812 0 12.0848C0 8.93304 0.516667 7.35714 1.55 7.35714C1.6 7.35714 1.78125 7.45089 2.09375 7.63839C2.40625 7.82589 2.8125 8.01562 3.3125 8.20759C3.8125 8.39955 4.30833 8.49554 4.8 8.49554C5.35833 8.49554 5.9125 8.39286 6.4625 8.1875C6.42083 8.51786 6.4 8.8125 6.4 9.07143C6.4 10.3125 6.7375 11.4554 7.4125 12.5ZM20.8 21.0312C20.8 22.1027 20.4958 22.9487 19.8875 23.5692C19.2792 24.1897 18.4708 24.5 17.4625 24.5H6.5375C5.52917 24.5 4.72083 24.1897 4.1125 23.5692C3.50417 22.9487 3.2 22.1027 3.2 21.0312C3.2 20.558 3.21458 20.096 3.24375 19.6451C3.27292 19.1942 3.33125 18.7076 3.41875 18.1853C3.50625 17.6629 3.61667 17.1786 3.75 16.7321C3.88333 16.2857 4.0625 15.8504 4.2875 15.4263C4.5125 15.0022 4.77083 14.6406 5.0625 14.3415C5.35417 14.0424 5.71042 13.8036 6.13125 13.625C6.55208 13.4464 7.01667 13.3571 7.525 13.3571C7.60833 13.3571 7.7875 13.4531 8.0625 13.6451C8.3375 13.8371 8.64167 14.0513 8.975 14.2879C9.30833 14.5246 9.75417 14.7388 10.3125 14.9308C10.8708 15.1228 11.4333 15.2188 12 15.2188C12.5667 15.2188 13.1292 15.1228 13.6875 14.9308C14.2458 14.7388 14.6917 14.5246 15.025 14.2879C15.3583 14.0513 15.6625 13.8371 15.9375 13.6451C16.2125 13.4531 16.3917 13.3571 16.475 13.3571C16.9833 13.3571 17.4479 13.4464 17.8687 13.625C18.2896 13.8036 18.6458 14.0424 18.9375 14.3415C19.2292 14.6406 19.4875 15.0022 19.7125 15.4263C19.9375 15.8504 20.1167 16.2857 20.25 16.7321C20.3833 17.1786 20.4937 17.6629 20.5813 18.1853C20.6688 18.7076 20.7271 19.1942 20.7563 19.6451C20.7854 20.096 20.8 20.558 20.8 21.0312ZM8 3.92857C8 4.875 7.6875 5.68304 7.0625 6.35268C6.4375 7.02232 5.68333 7.35714 4.8 7.35714C3.91667 7.35714 3.1625 7.02232 2.5375 6.35268C1.9125 5.68304 1.6 4.875 1.6 3.92857C1.6 2.98214 1.9125 2.17411 2.5375 1.50446C3.1625 0.834821 3.91667 0.5 4.8 0.5C5.68333 0.5 6.4375 0.834821 7.0625 1.50446C7.6875 2.17411 8 2.98214 8 3.92857ZM16.8 9.07143C16.8 10.4911 16.3313 11.7031 15.3938 12.7076C14.4563 13.7121 13.325 14.2143 12 14.2143C10.675 14.2143 9.54375 13.7121 8.60625 12.7076C7.66875 11.7031 7.2 10.4911 7.2 9.07143C7.2 7.65179 7.66875 6.43973 8.60625 5.43527C9.54375 4.4308 10.675 3.92857 12 3.92857C13.325 3.92857 14.4563 4.4308 15.3938 5.43527C16.3313 6.43973 16.8 7.65179 16.8 9.07143ZM24 12.0848C24 12.7812 23.7667 13.3103 23.3 13.6719C22.8333 14.0335 22.2583 14.2143 21.575 14.2143H19.9C19.0417 13.1161 17.9375 12.5446 16.5875 12.5C17.2625 11.4554 17.6 10.3125 17.6 9.07143C17.6 8.8125 17.5792 8.51786 17.5375 8.1875C18.0875 8.39286 18.6417 8.49554 19.2 8.49554C19.6917 8.49554 20.1875 8.39955 20.6875 8.20759C21.1875 8.01562 21.5938 7.82589 21.9062 7.63839C22.2188 7.45089 22.4 7.35714 22.45 7.35714C23.4833 7.35714 24 8.93304 24 12.0848ZM22.4 3.92857C22.4 4.875 22.0875 5.68304 21.4625 6.35268C20.8375 7.02232 20.0833 7.35714 19.2 7.35714C18.3167 7.35714 17.5625 7.02232 16.9375 6.35268C16.3125 5.68304 16 4.875 16 3.92857C16 2.98214 16.3125 2.17411 16.9375 1.50446C17.5625 0.834821 18.3167 0.5 19.2 0.5C20.0833 0.5 20.8375 0.834821 21.4625 1.50446C22.0875 2.17411 22.4 2.98214 22.4 3.92857Z" fill="white"/>
</g>
<defs>
<clipPath id="clip0_238_685">
<rect width="24" height="24" fill="white" transform="translate(0 0.5)"/>
</clipPath>
</defs>
</svg>
